<?xml version="1.0" encoding="UTF-8"?>
<svg xmlns="http://www.w3.org/2000/svg" xmlns:xlink="http://www.w3.org/1999/xlink" width="193px" height="37px" version="1.1" viewBox="0 0 193 37">
    <g id="login" fill="none" fill-rule="evenodd" stroke="none" stroke-width="1">
        <g fill="#D52316" fill-rule="nonzero">
            <path d="M8.47671466,16.4608886 L6.97159435,16.4608886 L6.97159435,6.94975757 L8.67365007,6.94975757 C11.5904778,6.94975757 11.7069406,8.33639313 11.7069406,11.7526361 C11.7069406,15.3298243 11.5597446,16.4608886 8.47671466,16.4608886 M8.57498018,0.635288557 L0.124550526,0.635288557 L0.124550526,35.7925051 L6.97159435,35.7925051 L6.97159435,22.775762 L8.62431512,22.775762 C12.3737712,22.775762 15.0103603,21.5055893 16.6824915,18.8956896 C17.9999773,16.8620384 18.2579748,14.7192032 18.2579748,11.7057275 C18.2579748,7.33594508 17.595188,5.12153379 15.7253126,3.24437944 C13.9282265,1.43960997 11.7235204,0.635288557 8.57498018,0.635288557"/>
            <polyline points="27.3368184 0.635288557 20.4897746 0.635288557 20.4897746 35.7925051 35.927974 35.7925051 35.927974 28.9454613 27.3368184 28.9454613 27.3368184 0.635288557"/>
            <polyline points="101.947436 0.635288557 82.5592055 0.635288557 82.5592055 7.10140188 88.830001 7.10140188 88.830001 35.7925051 95.6766404 35.7925051 95.6766404 7.10140188 101.947436 7.10140188 101.947436 0.635288557"/>
            <polyline points="143.540032 35.7925051 160.343435 35.7925051 160.343435 28.9454613 150.387481 28.9454613 150.387481 21.2306076 158.978636 21.2306076 158.978636 14.9161386 150.387481 14.9161386 150.387481 7.10140188 160.343435 7.10140188 160.343435 0.635288557 143.540032 0.635288557 143.540032 35.7925051"/>
            <path d="M45.9943254,22.9896816 L48.2944663,11.7077494 L48.4396404,11.7077494 L50.7446339,22.9896816 L45.9943254,22.9896816 Z M44.8911636,0.635288557 L36.6271554,35.7925051 L43.3925135,35.7925051 L44.8163524,28.7804723 L51.9036008,28.7804723 L53.3860756,35.7925051 L60.1514337,35.7925051 L51.8874254,0.635288557 L44.8911636,0.635288557 Z"/>
            <polyline points="73.6874069 18.0036167 73.5491073 18.0036167 67.1760024 0.635288557 61.1704834 0.635288557 61.1704834 35.7925051 68.0175273 35.7925051 68.0175273 18.3954656 68.1550181 18.3954656 74.5596649 35.7925051 80.5364726 35.7925051 80.5364726 0.635288557 73.6890244 0.635288557 73.6874069 18.0036167"/>
            <path d="M108.299108,22.9896816 L110.598845,11.7077494 L110.744019,11.7077494 L113.049417,22.9896816 L108.299108,22.9896816 Z M107.195542,0.635288557 L98.9315338,35.7925051 L105.697296,35.7925051 L107.120731,28.7804723 L114.208384,28.7804723 L115.690858,35.7925051 L122.455812,35.7925051 L114.192208,0.635288557 L107.195542,0.635288557 Z"/>
            <path d="M140.811648,12.1004071 L140.811648,9.39183752 C140.811648,3.34224056 136.247357,0.177120553 131.738466,0.177120553 C127.229575,0.177120553 122.665284,3.34224056 122.665284,9.39183752 L122.665284,27.118855 C122.665284,33.1688564 127.229575,36.333572 131.738466,36.333572 C136.247357,36.333572 140.811648,33.1688564 140.811648,27.118855 L140.811648,15.9513637 L131.954812,15.9513637 L131.954812,21.7300229 L134.412663,21.7300229 L134.412663,27.118855 C134.42075,29.3627864 132.752663,29.5022992 131.954812,29.5022992 C131.198208,29.5022992 129.496152,29.2701823 129.496152,27.118855 L129.496152,9.39183752 C129.496152,7.24051026 131.063952,7.00839337 131.738466,7.00839337 C132.412171,7.00839337 133.979971,7.24051026 133.979971,9.39183752 L133.979971,12.1004071 L140.811648,12.1004071"/>
            <path d="M188.771284,29.1800045 C186.982285,29.1800045 185.5265,30.6349811 185.5265,32.4239795 C185.5265,34.2137867 186.982285,35.6691677 188.771284,35.6691677 C190.560687,35.6691677 192.015663,34.2137867 192.015663,32.4239795 C192.015663,30.6349811 190.560687,29.1800045 188.771284,29.1800045 M188.771284,36.333572 C186.615508,36.333572 184.8625,34.5805638 184.8625,32.4239795 C184.8625,30.2686084 186.615508,28.5151958 188.771284,28.5151958 C190.926655,28.5151958 192.680876,30.2686084 192.680876,32.4239795 C192.680876,34.5805638 190.926655,36.333572 188.771284,36.333572"/>
            <path d="M188.144083,32.0842963 L188.710626,32.0842963 C189.310733,32.0842963 189.494324,31.8954485 189.494324,31.5173487 C189.494324,31.1396533 189.266251,30.9508056 188.843669,30.9508056 L188.144083,30.9508056 L188.144083,32.0842963 Z M187.376965,34.3407636 L187.376965,30.3284574 L188.977116,30.3284574 C189.888599,30.3284574 190.255376,30.8561796 190.260633,31.5173487 C190.267103,32.011507 190.016789,32.4122524 189.527888,32.5509563 L190.411064,34.3407636 L189.561047,34.3407636 L188.805252,32.7066445 L188.144083,32.7066445 L188.144083,34.3407636 L187.376965,34.3407636 Z"/>
            <polyline points="175.462575 18.0036167 175.32468 18.0036167 168.951575 0.635288557 162.945651 0.635288557 162.945651 35.7925051 169.792695 35.7925051 169.792695 18.3954656 169.93059 18.3954656 176.335237 35.7925051 182.311236 35.7925051 182.311236 0.635288557 175.464192 0.635288557 175.462575 18.0036167"/>
        </g>
    </g>
</svg>
